PathFileType	4	(X/Y/Z)	C:/Users/beibeiliu/ov580/test_trc\sequence.21_training_dense_left.trc
DataRate	CameraRate	NumFrames	NumMarkers	Units	OrigDataRate	OrigDataStartFrame	OrigNumFrames
120	120	14	19	mm	120	1	397
Frame#	Time	ThumbCMC			ThumbMCP			ThumbIP			ThumbTip			IndexMCP			IndexPIP			IndexTip			MiddleMCP			MiddlePIP			MiddleTip			RingMCP			RingPIP			RingTip			PinkyMCP			PinkyPIP			PinkyTip			BackHand1			BackHand2			BackHand3	
		X0	Y0	Z0	X1	Y1	Z1	X2	Y2	Z2	X3	Y3	Z3	X4	Y4	Z4	X5	Y5	Z5	X6	Y6	Z6	X7	Y7	Z7	X8	Y8	Z8	X9	Y9	Z9	X10	Y10	Z10	X11	Y11	Z11	X12	Y12	Z12	X13	Y13	Z13	X14	Y14	Z14	X15	Y15	Z15	X16	Y16	Z16	X17	Y17	Z17	X18	Y18	Z18	
0	0	-170.615	18.0644	27.7614	-155.989	5.38	11.0461	-138.85	1.13024	-4.86866	-125.113	-4.06745	-21.443	-171.516	21.9528	-40.292	-162.69	17.4274	-60.5914	-153.781	12.0633	-86.6842	-192.728	23.3516	-50.3614	-192.103	20.6442	-74.753	-193.007	14.5928	-100.1	-211.81	21.153	-47.4318	-213.153	19.1455	-65.7899	-214.648	14.976	-87.0472	-236.087	16.5191	-34.7643	-238.949	13.4344	-49.2893	-240.428	12.3324	-70.6939	-214.607	34.186	-5.84281	-218.391	40.2187	24.204	-191.124	38.3282	10.1391	
1	0.00833333	-172.799	18.4928	25.3078	-155.466	6.94078	10.2027	-144.369	1.45025	-6.84495	-126.95	-4.65513	-21.3717	-172.726	22.8235	-41.9757	-164.46	18.5455	-65.2298	-156.812	12.2473	-88.0362	-192.897	23.8377	-52.7749	-192.328	21.6391	-72.1499	-194.105	15.3131	-100.099	-217.352	22.0269	-45.4572	-213.185	18.7842	-66.1584	-214.838	14.7389	-92.1317	-234.039	16.4012	-30.8266	-241.382	13.33	-53.8995	-244.377	14.0406	-68.7578	-218.583	33.6228	-2.35899	-218.202	41.234	21.467	-191.307	37.8562	8.53451	
2	0.0166667	-173.768	18.317	27.2474	-158.474	6.70819	12.4128	-140.491	0.832911	-8.2784	-130.691	-4.59252	-18.0799	-167.484	22.2935	-44.0534	-165.688	18.7312	-62.8924	-154.451	13.9632	-83.0232	-195.883	24.7487	-49.5627	-192.895	21.4112	-73.1475	-191.393	16.4408	-98.0139	-212.642	22.1958	-43.1547	-213.842	18.2922	-70.4709	-216.118	14.6106	-90.9242	-236.099	17.7437	-31.8833	-241.722	13.6247	-51.362	-243.424	12.2856	-68.8269	-219.53	34.5945	-3.03283	-218.118	39.8725	21.4842	-193.76	38.2987	11.1876	
3	0.025	-169.884	19.5552	23.2439	-158.283	7.40267	9.3651	-142.832	1.46418	-6.87535	-130.225	-4.33323	-16.1088	-170.432	23.4036	-43.9261	-160.909	19.9937	-65.0897	-160.119	15.2291	-83.2122	-193.702	25.4973	-47.9018	-193.173	22.1027	-75.2109	-194.243	16.8483	-98.875	-212.249	23.2315	-45.7539	-214.794	19.5541	-69.027	-213.968	16.6642	-85.8454	-231.591	17.9981	-30.8875	-237.734	16.2245	-51.5409	-244.444	15.8873	-68.5154	-217.404	34.1304	-5.52342	-221.731	41.1707	19.8543	-191.831	39.3604	8.4756	
4	0.0333333	-175.246	20.2616	26.5244	-156.738	8.31188	8.53491	-140.825	2.13421	-4.07595	-127.414	-3.97119	-16.6726	-168.676	24.8911	-39.8305	-163.755	21.602	-60.2725	-155.639	17.0635	-81.4605	-191.306	27.1962	-53.1627	-190.516	21.8806	-76.9128	-191.977	18.3783	-97.1088	-217.244	23.1506	-44.8133	-213.641	20.9285	-70.2254	-216.008	16.499	-90.1886	-237.753	18.3708	-32.4068	-236.907	16.4497	-50.1682	-245.259	16.4489	-68.622	-218.564	36.6029	-5.02363	-216.335	42.4306	19.2908	-193.058	39.2659	8.58824	
5	0.0416667	-174.375	20.9995	23.0018	-158.186	9.38814	9.65114	-142.477	3.20393	-7.94006	-127.304	-3.79541	-17.5793	-168.548	25.363	-38.0584	-165.94	21.3212	-64.4209	-156.606	17.3692	-81.2257	-195.841	26.5869	-52.0305	-191.837	23.5071	-73.9445	-195.352	17.9787	-97.9285	-218.086	24.2191	-44.4013	-217.06	21.6568	-69.6653	-217.764	17.9549	-86.9703	-235.816	20.0971	-31.959	-237.511	17.3312	-47.9224	-245.882	14.7448	-67.3731	-216.118	37.0453	-0.776626	-219.509	42.3309	21.3969	-190.45	39.9351	10.7848	
6	0.05	-172.04	22.0071	24.1479	-155.653	9.84153	9.86661	-145.106	2.51631	-3.86233	-130.41	-2.51203	-17.1919	-171.489	25.8337	-43.6106	-163.545	21.9664	-59.3164	-158.94	17.9438	-81.7037	-196.834	27.0988	-52.3285	-191.99	24.1858	-71.2815	-193.353	19.3097	-99.3658	-213.494	25.0473	-41.7446	-215.949	22.5207	-66.3255	-214.011	19.6604	-90.3867	-238.24	20.1101	-31.4946	-241.314	17.0477	-52.4779	-246.161	16.1352	-68.6563	-215.312	35.6239	0.226863	-221.294	43.2503	23.2192	-193.913	42.4469	11.812	
7	0.0583333	-173.011	22.7933	28.6956	-157.413	9.80938	12.5655	-140.191	4.56852	-6.00307	-126.885	-1.53404	-15.3139	-170.485	26.938	-42.1986	-161.745	21.7119	-63.8266	-159.492	18.864	-82.1095	-195.035	27.4845	-51.9957	-193.106	24.1818	-72.2364	-190	18.6822	-101.505	-213.266	26.028	-43.1857	-218.313	22.76	-66.9461	-216.733	19.5383	-86.782	-238.311	21.6874	-34.1443	-239.515	18.1702	-49.2351	-245.91	15.83	-71.552	-220.581	36.9269	-0.565865	-220.74	43.6009	21.3449	-190.666	43.5754	11.165	
8	0.0666667	-173.025	21.7537	25.5858	-157.695	9.68686	9.24191	-144.843	4.28791	-6.14245	-127.845	-1.07306	-20.1527	-170.943	27.0775	-39.96	-162.858	22.5305	-65.0392	-153.461	17.3014	-85.5151	-194.696	28.2476	-48.6648	-195.505	24.0718	-76.0553	-192.864	19.2737	-99.1853	-215.372	26.2508	-45.0194	-217.797	23.0344	-66.5357	-213.593	18.9846	-89.3638	-237.869	21.3103	-29.6099	-239.36	18.2981	-48.151	-246.503	16.52	-69.1778	-217.664	36.2906	-1.93012	-221.606	43.2355	24.2578	-192.686	41.278	11.9757	
9	0.075	-175.517	22.1354	26.7706	-154.334	9.66173	11.1306	-140.927	4.62969	-2.47612	-131.296	-2.15948	-17.1546	-169.796	26.6794	-40.9301	-166.486	23.597	-61.0958	-157.936	19.1463	-83.8442	-193.146	28.3697	-51.0008	-191.436	24.9308	-73.6161	-192.177	19.4694	-97.6021	-212.194	26.6625	-46.1494	-218.716	23.6836	-64.965	-215.453	18.724	-87.5003	-233.352	21.4102	-29.7592	-241.119	17.7274	-50.6761	-244.393	15.8029	-68.6687	-220.543	37.3461	-1.74568	-220.702	44.0415	20.1398	-191.846	41.9958	12.6905	
10	0.0833333	-173.007	22.8018	24.9964	-156.813	10.2251	11.0104	-142.046	4.27027	-4.93599	-127.168	-1.16602	-17.6032	-172.021	26.3055	-42.6274	-163.697	22.8483	-61.4596	-158.185	18.5786	-86.0103	-194.339	28.336	-52.7886	-192.374	24.4321	-72.6036	-195.855	19.6447	-97.6847	-218.69	25.9766	-44.2957	-218.077	23.8338	-65.4742	-214.743	19.8033	-89.1386	-233.612	21.5238	-30.289	-240.365	18.9436	-50.5992	-244.126	15.789	-68.431	-220.403	37.5455	-1.40498	-219.971	42.896	19.4048	-193.713	42.932	11.0986	
11	0.0916667	-177.25	21.9827	27.2839	-155.031	10.5938	13.5089	-140.998	5.4859	-2.85843	-131.061	-0.147939	-17.0063	-170.485	26.957	-42.4269	-163.175	23.17	-63.5144	-158.945	19.9246	-82.011	-194.82	28.7542	-49.6285	-194.741	25.4539	-74.677	-194.12	20.412	-101.096	-217.415	26.3359	-42.1797	-214.924	23.9456	-64.7664	-217.006	20.5589	-85.7247	-233.573	22.5205	-35.4777	-238.151	19.0427	-48.778	-246.854	16.2606	-69.7798	-220.141	39.1483	-3.31784	-222.866	44.4993	21.1164	-191.04	40.9125	10.275	
12	0.1	-177	24.0405	23.1495	-160.406	10.946	10.1935	-141.145	5.78919	-3.24329	-127.944	1.7886	-15.4831	-169.561	28.1558	-43.0094	-161.48	24.695	-61.7889	-157.54	21.356	-80.402	-192.87	29.4939	-51.2416	-193.84	25.8622	-75.8563	-194.878	22.4242	-97.4253	-218.911	27.4787	-43.7833	-213.53	24.5922	-68.0092	-215.47	20.3334	-87.5614	-236.752	21.7057	-30.5972	-239.873	18.9217	-47.9705	-244.926	17.2296	-71.2657	-216.251	36.9869	-3.92991	-221.126	43.9492	23.7954	-194.113	41.5816	12.4749	
13	0.108333	-175.898	23.381	27.511	-155.747	12.5175	10.5071	-140.868	8.17416	-5.73457	-128.043	2.58719	-17.9657	-174.436	29.576	-40.4436	-165.088	27.1199	-59.8396	-157.035	22.1525	-84.4166	-194.781	31.1336	-52.8121	-192.361	27.036	-75.0772	-192.624	23.1202	-96.6951	-216.021	28.0168	-45.6535	-215.665	24.7586	-64.3755	-214.246	20.5389	-85.8376	-234.149	23.0942	-35.2937	-241.081	18.0814	-53.1989	-242.829	17.1632	-70.9437	-217.532	37.1129	-3.68289	-220.937	45.5956	21.3935	-194.505	44.9036	14.3684	
